<svg width="194" height="179" viewBox="0 0 194 179" fill="none" xmlns="http://www.w3.org/2000/svg">
<path d="M126.611 0H66.8313L18.4694 34.189L0 89.5L18.4694 144.816L66.8313 179H126.611L174.973 144.816L193.448 89.5L174.973 34.189L126.611 0Z" fill="white"/>
<path d="M124.139 7.38867H69.2969L24.9274 38.7552L7.97925 89.4996L24.9274 140.249L69.2969 171.61H124.139L168.509 140.249L185.457 89.4996L168.509 38.7552L124.139 7.38867Z" stroke="#1836B2" stroke-miterlimit="10"/>
<path d="M62.3278 29.3037L131.201 29.6283L131.698 114.441C131.421 118 130.533 123.574 127.485 129.654C125.574 133.461 122.017 140.316 113.953 145.086C103.841 151.062 93.5323 149.653 90.7727 149.185C78.8914 147.172 72.111 139.684 70.0356 137.318C68.0055 135.001 60.8858 126.892 61.8302 116.493C62.0564 113.984 62.6389 107.558 67.1516 105.808C70.0979 104.669 74.3844 105.643 76.4654 108.724C78.0601 111.073 78.801 115.293 76.0243 117.467C73.7736 119.227 70.03 119.013 67.4852 116.603C67.4796 118.006 67.6096 124.003 72.2524 128.151C77.0931 132.471 83.5229 131.827 86.7972 131.502C88.8556 131.299 93.0404 130.831 97.1007 127.997C104.548 122.809 105.363 114.006 105.476 112.515C106.075 104.229 105.759 97.3296 105.3 92.3229C104.577 84.4111 104.136 79.3603 101.529 73.0056C99.8943 69.0222 97.3043 62.9095 91.1007 57.3581C84.801 51.7186 78.0941 49.6334 74.3561 48.511C69.5719 47.075 65.3985 46.6128 62.4862 46.4587L62.3278 29.3037Z" fill="url(#paint0_radial_492_914)"/>
<path d="M85.7607 83.9092C88.3779 83.9092 90.4996 81.845 90.4996 79.2986C90.4996 76.7522 88.3779 74.688 85.7607 74.688C83.1434 74.688 81.0217 76.7522 81.0217 79.2986C81.0217 81.845 83.1434 83.9092 85.7607 83.9092Z" fill="#1836B2"/>
<defs>
<radialGradient id="paint0_radial_492_914" cx="0" cy="0" r="1" gradientUnits="userSpaceOnUse" gradientTransform="translate(97.875 99.0377) scale(115.818 112.682)">
<stop stop-color="#1836B2"/>
<stop offset="0.0040322" stop-color="#1936B2"/>
<stop offset="0.1581" stop-color="#4245BA"/>
<stop offset="0.3161" stop-color="#6451C1"/>
<stop offset="0.4765" stop-color="#7E5AC6"/>
<stop offset="0.6403" stop-color="#9161C9"/>
<stop offset="0.8096" stop-color="#9C65CB"/>
<stop offset="0.9931" stop-color="#A066CC"/>
</radialGradient>
</defs>
</svg>
